<svg id="Layer_1" data-name="Layer 1" xmlns="http://www.w3.org/2000/svg" viewBox="0 0 408.93 144"><defs><style>.cls-1{fill:#fe0;}.cls-2{fill:#fff;}</style></defs><title>Artboard 1</title><path class="cls-1" d="M373,123.57c0,4.62-2.05,6.5-5,6.5H361.4V87H367c3.59,0,6,2.91,6,7.52Zm0-53.17c0,4.62-2.39,7.52-6,7.52H361.4V37.07h6.67c2.91,0,5,1.88,5,6.5Zm10.26,52.14V96.9c0-6.84-1.71-12-7.18-14.36,5.47-2.22,7.18-7.52,7.18-14.19V44.59c0-14.53-8.38-18-15-18H351V140.49h17.27c6.67,0,15-3.42,15-18m-46.54-15.22h-9.4l5.3-52.82Zm13.33,33.17-12-113.86H327.33L314.51,140.49h9.4l2.39-23.08h11.28l1.71,23.08Zm-37.14,0V130.24H296.18V26.64H285.92V140.49Z"/><path class="cls-2" d="M280.4,120c0-12-5.47-25.13-12-39-7-14.7-11.11-23.59-11.11-36.93,0-6.15,2.74-9.06,7.18-9.06,3.76,0,5.81,3.25,5.81,10.09V61.34h9.74V44.76c0-11.62-6-19.49-15.39-19.49-12.14,0-17.27,9.4-17.27,22.57,0,11.8,7.52,29.06,13,40.35,6.15,12.82,10.09,23.42,10.09,34.87,0,6.33-2.05,9.91-7.35,9.91-3.93,0-6.67-4.27-6.67-9.91v-15.9h-9.91v15.39c0,11.45,6.32,19.32,16.92,19.32,6.84,0,16.92-4.1,16.92-21.88m-37.14,0c0-12-5.47-25.13-12-39-7-14.7-11.11-23.59-11.11-36.93,0-6.15,2.74-9.06,7.18-9.06,3.76,0,5.81,3.25,5.81,10.09V61.34h9.74V44.76c0-11.62-6-19.49-15.39-19.49-12.14,0-17.27,9.4-17.27,22.57,0,11.8,7.52,29.06,13,40.35,6.15,12.82,10.09,23.42,10.09,34.87,0,6.33-2.05,9.91-7.35,9.91-3.93,0-6.67-4.27-6.67-9.91v-15.9h-9.92v15.39c0,11.45,6.33,19.32,16.92,19.32,6.84,0,16.93-4.1,16.93-21.88m-36.64,20.51v-9.74H189.18V86.81h12.65V77.07H189.18V36.38h17.44V26.64h-27.7V140.49Zm-35.09,0V26.64h-9.74v77.1l-3.08-17.61-13-59.49H135.63V140.49h9.74V64.42l3.42,17.27,15,58.81ZM128.24,26.64H117.81V140.49h10.43ZM112.29,120c0-12-5.47-25.13-12-39-7-14.7-11.11-23.59-11.11-36.93,0-6.15,2.74-9.06,7.18-9.06,3.76,0,5.81,3.25,5.81,10.09V61.34H112V44.76c0-11.62-6-19.49-15.39-19.49-12.14,0-17.27,9.4-17.27,22.57,0,11.8,7.52,29.06,13,40.35,6.15,12.82,10.09,23.42,10.09,34.87,0,6.33-2.05,9.91-7.35,9.91-3.93,0-6.67-4.27-6.67-9.91v-15.9H78.44v15.39c0,11.45,6.33,19.32,16.92,19.32,6.84,0,16.93-4.1,16.93-21.88m-38.68,2.39V26.64H63.87V123.4c0,5.3-2.22,8-6.5,8-4.1,0-6.32-2.74-6.32-8V26.64H40.79v95.73c0,11.62,7,19.49,16.41,19.49,9.23,0,16.41-7.86,16.41-19.49m-49.11,1.2c0,4.62-2.05,6.5-5,6.5H12.88V87h5.64c3.59,0,6,2.91,6,7.52Zm0-53.17c0,4.62-2.39,7.52-6,7.52H12.88V37.07h6.67c2.91,0,5,1.88,5,6.5Zm10.26,52.14V96.9c0-6.84-1.71-12-7.18-14.36,5.47-2.22,7.18-7.52,7.18-14.19V44.59c0-14.53-8.38-18-15-18H2.45V140.49H19.72c6.67,0,15-3.42,15-18"/><path class="cls-2" d="M383.28,2.14V7.48h5.34L394,2.14Zm14.24,0-5.34,5.34v17.8h5.34V7.48h8.9V2.14Z"/></svg>